<?xml version="1.0" encoding="UTF-8"?>
<svg version="1.1" xmlns="http://www.w3.org/2000/svg" width="1024" height="1024">
<path d="M0 0 C1.01130858 -0.00384115 2.02261715 -0.00768229 3.06457144 -0.01163983 C4.18922652 -0.01077335 5.31388161 -0.00990687 6.47261715 -0.00901413 C8.24934501 -0.01347081 8.24934501 -0.01347081 10.06196636 -0.01801753 C13.3654509 -0.02522179 16.66888347 -0.02787874 19.97237217 -0.028615 C23.53045338 -0.03046096 27.0885232 -0.03800682 30.64659786 -0.04475021 C38.44128838 -0.05836298 46.23597378 -0.06436516 54.03067422 -0.06876087 C58.90523306 -0.07152299 63.77978992 -0.07576074 68.65434742 -0.08026505 C82.16611163 -0.09247034 95.67787425 -0.10276143 109.18964386 -0.10614014 C110.4885015 -0.10646949 110.4885015 -0.10646949 111.81359869 -0.10680549 C112.68155427 -0.10702377 113.54950986 -0.10724204 114.44376713 -0.10746694 C116.20248354 -0.10791039 117.96119994 -0.10835696 119.71991634 -0.10880661 C121.02848603 -0.10913875 121.02848603 -0.10913875 122.36349147 -0.10947761 C136.44426611 -0.1134108 150.52498852 -0.13081367 164.60574306 -0.15416613 C179.08361154 -0.17798146 193.56145398 -0.19034689 208.03934234 -0.19150805 C216.1588995 -0.19242007 224.27838895 -0.19805012 232.39792728 -0.21632767 C239.32593747 -0.23186779 246.25385912 -0.23676908 253.18188346 -0.22858956 C256.7068692 -0.22472914 260.23167748 -0.22538055 263.75664043 -0.23964691 C309.14799847 -0.39190665 351.77942071 8.82454907 388.3524847 37.13142776 C389.15814877 37.71537308 389.96381283 38.29931839 390.79389095 38.90095901 C424.85381531 64.43149453 447.46979258 104.02183105 453.57855892 145.98030472 C457.5016371 178.45397663 453.54162187 211.9696747 438.3524847 241.13142776 C437.88197689 242.0788887 437.41146908 243.02634964 436.92670345 244.00252151 C428.97191829 259.44152709 417.5873846 272.13849637 405.24945736 284.1983223 C402.4459068 286.89276584 402.4459068 286.89276584 400.3524847 290.13142776 C401.06533627 290.38150589 401.77818783 290.63158401 402.51264095 290.88924026 C433.17848507 304.30291073 457.74681046 341.29506974 469.53607845 371.17049026 C487.12219735 417.93633268 485.18671746 468.96692878 464.98139095 514.52986526 C458.32880706 528.97030299 449.77403211 541.16905151 439.3524847 553.13142776 C438.63874691 553.9568306 438.63874691 553.9568306 437.91059017 554.79890823 C406.0010541 591.44669869 362.8286699 613.01966623 314.39781713 616.9437201 C303.76903279 617.59885523 293.09143722 617.40274767 282.44631219 617.37821805 C278.58428367 617.37155327 274.72226642 617.37660801 270.86023617 617.38010025 C263.32594383 617.38510451 255.79169589 617.37955056 248.25740908 617.37024995 C239.4789004 617.35980643 230.70040102 617.35993762 221.92188729 617.36042253 C206.26934924 617.36092143 190.61683175 617.35180355 174.96430111 617.33723831 C159.77419314 617.32311075 144.58410323 617.31606952 129.39398861 617.3167305 C128.45565516 617.31677046 127.5173217 617.31681041 126.5505539 617.31685158 C125.14547575 617.31691211 125.14547575 617.31691211 123.71201217 617.31697387 C106.39720798 617.31766265 89.08241145 617.31178548 71.76760974 617.30282065 C65.64486838 617.29980126 59.52212843 617.29874079 53.39938641 617.29828835 C45.95477856 617.29760802 38.51018365 617.29316778 31.06558131 617.28395554 C27.26592087 617.27932455 23.46627704 617.27629688 19.66661358 617.27754974 C15.55821303 617.27883883 11.44986213 617.27242448 7.34146786 617.26514053 C5.52096804 617.26746344 5.52096804 617.26746344 3.66369045 617.26983327 C2.57266368 617.26660882 1.4816369 617.26338437 0.35754871 617.26006222 C-0.59170518 617.25935779 -1.54095907 617.25865337 -2.51897824 617.2579276 C-4.6475153 617.13142776 -4.6475153 617.13142776 -5.6475153 616.13142776 C-5.76925411 614.63888248 -5.82261513 613.14069895 -5.84851933 611.64342117 C-5.86723591 610.67348724 -5.88595249 609.70355331 -5.90523624 608.70422745 C-5.92049351 607.63106781 -5.93575077 606.55790817 -5.95147038 605.45222855 C-5.98060268 603.7667617 -5.98060268 603.7667617 -6.01032352 602.04724503 C-6.17934428 591.65038875 -6.27742121 581.25244855 -6.35139275 570.85451317 C-6.40717094 563.17412242 -6.5016417 555.49626815 -6.64705068 547.81704152 C-6.75788106 541.75847978 -6.80236137 535.70092957 -6.82498074 529.64143372 C-6.84457936 527.07131489 -6.88496227 524.50126465 -6.94684124 521.9318161 C-7.4329188 500.75687532 -7.4329188 500.75687532 -3.08290958 495.19655228 C-0.26556559 492.3186526 2.92076701 490.23331715 6.3524847 488.13142776 C8.16312223 486.67554479 9.95806479 485.19963579 11.7274847 483.69392776 C13.06939877 482.61304886 13.06939877 482.61304886 14.4384222 481.51033401 C17.79230808 478.77237624 21.07438265 475.95922888 24.3524847 473.13142776 C29.36538646 468.81180686 34.43786979 464.58044692 39.57514095 460.40877151 C42.69644838 457.84938723 45.776985 455.24548986 48.8524847 452.63142776 C52.82152013 449.25859188 56.81265492 445.91966131 60.8524847 442.63142776 C67.66236364 437.08483072 74.34741804 431.39263546 81.03461361 425.69929886 C91.78554061 416.54711558 91.78554061 416.54711558 97.2899847 412.19392776 C102.00387888 408.45954407 106.55480593 404.55295517 111.1078558 400.62605667 C115.53763877 396.81175507 120.03708037 393.09386329 124.57514095 389.40877151 C127.69644738 386.84938805 130.77701894 384.2455286 133.8524847 381.63142776 C137.79898951 378.2769565 141.76890542 374.95920947 145.7899847 371.69392776 C150.65377495 367.73634589 155.41129702 363.6660033 160.16083431 359.57307816 C164.54910417 355.79927409 169.01052707 352.12615333 173.50482845 348.47908401 C176.84917189 345.7219504 180.13322572 342.89997307 183.4149847 340.06892776 C188.10798016 336.02184996 192.86766196 332.09398891 197.73139095 328.25252151 C200.97318161 325.62913504 204.13192563 322.91708014 207.2899847 320.19392776 C213.23182904 315.07233269 219.26600591 310.08061348 225.3524847 305.13142776 C234.13794929 297.95377536 242.87558977 290.73117826 251.46503353 283.31966019 C255.75139875 279.6269915 260.11610182 276.04096211 264.5087347 272.47517776 C267.82935064 269.73840639 271.09292179 266.94036392 274.3524847 264.13142776 C279.36563243 259.81208505 284.43785985 255.58045499 289.57514095 251.40877151 C293.25883592 248.38824526 296.88664403 245.30418261 300.51459408 242.21712112 C303.94309869 239.30563745 307.4122708 236.45375839 310.9149847 233.63142776 C316.95759033 228.69707295 322.72307847 223.52948854 328.3524847 218.13142776 C329.57838314 216.96353714 329.57838314 216.96353714 330.8290472 215.77205276 C343.80846876 202.48041145 349.31235419 184.44121806 349.3602972 166.15095901 C348.63739016 149.03507179 342.62944601 132.62078584 330.0399847 120.69392776 C311.9653366 106.06505313 291.47556002 103.83930853 269.0778265 103.81258011 C267.27297177 103.80326275 265.46812127 103.79309145 263.66327572 103.78213882 C258.80263925 103.75502839 253.94203145 103.73974616 249.0813396 103.7267108 C243.98710259 103.71099658 238.89292343 103.68423314 233.79872799 103.65867996 C224.16958132 103.61203813 214.5404236 103.57522372 204.91122228 103.54200709 C193.94132334 103.50368211 182.97148271 103.45429937 172.00163305 103.40402293 C149.45196024 103.30092036 126.90224992 103.21158998 104.3524847 103.13142776 C104.37045967 104.76283565 104.37045967 104.76283565 104.38879776 106.42720127 C104.67759136 132.91003743 104.8911117 159.39266904 105.02604294 185.87674809 C105.09303233 198.68446048 105.18433411 211.49113176 105.33319759 224.29817581 C105.46290985 235.46293599 105.54667345 246.62694212 105.57563514 257.79243487 C105.59256164 263.70312821 105.63223718 269.61166473 105.72697544 275.52166557 C105.81550707 281.08982178 105.84238086 286.65494261 105.82288456 292.22373581 C105.82644854 294.2623936 105.85214686 296.30115734 105.90215588 298.33920479 C106.27930438 314.50836195 106.27930438 314.50836195 101.55250263 319.69884682 C98.40088615 322.59877855 94.96207511 324.83879467 91.3524847 327.13142776 C89.49979096 328.60744843 87.66266331 330.10356504 85.8524847 331.63142776 C84.96303158 332.35588089 84.07357845 333.08033401 83.1571722 333.82674026 C77.26760961 338.66635298 71.47447215 343.622055 65.6703558 348.56355667 C59.49929333 353.81693573 53.29461858 359.00711097 46.94232845 364.04158401 C43.89166495 366.50328081 40.90103524 369.02956459 37.9149847 371.56892776 C33.13416672 375.6340088 28.31518084 379.64448517 23.4462347 383.60408401 C21.00027033 385.60223925 18.56435501 387.61081901 16.1337347 389.62752151 C15.38640072 390.24651321 14.63906673 390.86550491 13.86908627 391.50325394 C12.39557093 392.7242528 10.92348431 393.94697863 9.45307064 395.17171097 C5.20497161 398.68708753 0.87788628 401.9802319 -3.6475153 405.13142776 C-4.3075153 404.80142776 -4.9675153 404.47142776 -5.6475153 404.13142776 C-5.67037934 352.80863242 -5.68801234 301.4858376 -5.69858063 250.16303817 C-5.69983141 244.11075331 -5.70112572 238.05846847 -5.70244694 232.00618362 C-5.70270925 230.80122818 -5.70297156 229.59627274 -5.70324182 228.3548035 C-5.70759903 208.81686782 -5.71548685 189.27893507 -5.72466809 169.74100114 C-5.73400322 149.70926667 -5.73957061 129.67753374 -5.74160379 109.64579719 C-5.74297931 97.27448838 -5.74733148 84.90318783 -5.75543176 72.53188156 C-5.76069748 64.06075454 -5.76231999 55.58963182 -5.76101667 47.11850328 C-5.76037302 42.22330459 -5.76139387 37.32812041 -5.76672077 32.43292427 C-5.77155383 27.95915844 -5.77185457 23.48541699 -5.76841419 19.01165008 C-5.7679884 17.38580136 -5.76928493 15.75995118 -5.77239848 14.13410539 C-5.77636101 11.93879828 -5.77427961 9.74358141 -5.77056313 7.54827595 C-5.77094285 6.32443732 -5.77132257 5.1005987 -5.77171379 3.83967406 C-5.56662459 -0.63245792 -4.03034956 0.00571075 0 0 Z M317.5399847 355.94392776 C316.5499847 356.76892776 315.5599847 357.59392776 314.5399847 358.44392776 C313.47708005 359.33928094 312.41458409 360.2351195 311.3524847 361.13142776 C310.31081804 362.00642776 309.26915137 362.88142776 308.2274847 363.75642776 C303.13084764 368.0482913 298.06493139 372.37522704 293.01361752 376.72029495 C287.44555951 381.50900749 281.83145255 386.22413082 276.12982845 390.85408401 C273.00852103 393.4134683 269.9279844 396.01736567 266.8524847 398.63142776 C262.00294419 402.75250568 257.10087506 406.80134259 252.1649847 410.81892776 C249.03448804 413.39289169 245.9407601 416.00711863 242.8524847 418.63142776 C238.88340535 422.00421351 234.89231607 425.34319293 230.8524847 428.63142776 C224.61331714 433.71318453 218.48356509 438.92036882 212.3524847 444.13142776 C205.34013912 450.09151047 198.30287665 456.00901571 191.1649847 461.81892776 C188.03448804 464.39289169 184.9407601 467.00711863 181.8524847 469.63142776 C177.00289089 473.7524441 172.10087664 477.8013413 167.1649847 481.81892776 C163.47596497 484.85212176 159.83808699 487.94347521 156.19940853 491.0367012 C152.67795313 494.02498404 149.12328931 496.96720493 145.5399847 499.88142776 C138.7900499 505.32711052 138.7900499 505.32711052 132.3524847 511.13142776 C132.3524847 511.46142776 132.3524847 511.79142776 132.3524847 512.13142776 C153.36324449 512.17825723 174.37399561 512.21347008 195.3847971 512.23505211 C205.14162223 512.2453417 214.89841483 512.25935748 224.65521908 512.28230667 C233.16443765 512.30231176 241.67363265 512.31516102 250.18287408 512.31960475 C254.68372192 512.32220013 259.18450236 512.32825153 263.68532848 512.34288788 C267.93209108 512.35658457 272.17875928 512.36062629 276.42554188 512.35764313 C277.97417179 512.35818794 279.52280526 512.36209274 281.0714159 512.36983871 C309.17562164 512.50337416 333.89334315 505.92251571 354.3524847 486.13142776 C368.53534107 471.38031004 374.04343709 452.46730702 373.82099056 432.41780472 C372.92991777 405.52974143 360.67208578 384.07315095 341.65326595 365.49470901 C330.50605361 353.51701114 330.50605361 353.51701114 317.5399847 355.94392776 Z " fill="#02888B" transform="translate(280.64751529693604,191.86857223510742)"/>
<path d="M0 0 C2.475 0.495 2.475 0.495 5 1 C4.01 1.495 4.01 1.495 3 2 C3 133.34 3 264.68 3 400 C5.475 398.02 5.475 398.02 8 396 C8.66 396 9.32 396 10 396 C8.50164772 400.66154042 5.11536409 401.86610751 1 404 C0 403 0 403 -0.1241985 400.29175371 C-0.12381878 399.06791508 -0.12343906 397.84407646 -0.12304783 396.58315182 C-0.12420167 395.90158338 -0.12535552 395.22001494 -0.12654433 394.51779291 C-0.12921758 392.20527383 -0.12468306 389.89282264 -0.12025452 387.58030701 C-0.12069007 385.91714924 -0.12156469 384.25399153 -0.12284368 382.5908342 C-0.12509168 377.99825063 -0.12106322 373.40569014 -0.11606562 368.81310952 C-0.11176565 363.86897729 -0.11320722 358.92484646 -0.1139679 353.98071289 C-0.11449342 345.40724311 -0.11134366 336.83378091 -0.10573006 328.26031303 C-0.0976189 315.86436538 -0.09500023 303.46842141 -0.09374207 291.07247139 C-0.09155094 270.9631071 -0.08488922 250.85374686 -0.07543945 230.74438477 C-0.0662669 211.20467143 -0.0591853 191.66495919 -0.05493164 172.12524414 C-0.05466892 170.92174765 -0.05440619 169.71825115 -0.05413551 168.47828507 C-0.05283052 162.44097499 -0.0515668 156.40366491 -0.05032361 150.36635482 C-0.03994911 100.24423375 -0.02232915 50.12211707 0 0 Z " fill="#188588" transform="translate(275,193)"/>
<path d="M0 0 C0.99 0.33 1.98 0.66 3 1 C2.34 1.66 1.68 2.32 1 3 C1 40.95 1 78.9 1 118 C104.62 118.33 208.24 118.66 315 119 C314.67 119.66 314.34 120.32 314 121 C273.76049076 121.02286476 233.52098236 121.0404974 193.28146792 121.05106533 C188.53603394 121.05231611 183.79059997 121.05361042 179.04516602 121.05493164 C177.62800808 121.05532511 177.62800808 121.05532511 176.18222069 121.05572652 C160.8636931 121.06008356 145.54516924 121.06797129 130.22664387 121.0771528 C114.52059692 121.08648839 98.81455194 121.09205541 83.10850233 121.09408849 C73.408916 121.09546392 63.70934023 121.09981555 54.00975715 121.10791647 C47.36778603 121.11318277 40.72582041 121.11480456 34.08384735 121.11350138 C30.2458362 121.11285781 26.40784356 121.11387755 22.56983566 121.11920547 C18.41882365 121.12492618 14.26785157 121.12300124 10.11683655 121.12025452 C8.89020973 121.12316736 7.66358291 121.1260802 6.39978558 121.12908131 C4.7456695 121.12609474 4.7456695 121.12609474 3.05813694 121.12304783 C2.09858367 121.12342755 1.13903039 121.12380727 0.15039974 121.1241985 C-2 121 -2 121 -3 120 C-3.10227886 118.48878701 -3.13519048 116.97282144 -3.14044189 115.4581604 C-3.14615204 114.47666519 -3.15186218 113.49516998 -3.15774536 112.4839325 C-3.15942215 110.8553405 -3.15942215 110.8553405 -3.16113281 109.19384766 C-3.16609772 108.05735275 -3.17106262 106.92085785 -3.17617798 105.74992371 C-3.19084373 101.97129726 -3.1976088 98.19271279 -3.203125 94.4140625 C-3.20887265 91.79950966 -3.21463042 89.18495685 -3.22039795 86.57040405 C-3.2299763 81.78345994 -3.23586884 76.99652495 -3.2388947 72.20957243 C-3.24337615 65.15790491 -3.26092529 58.10643116 -3.2898953 51.05482256 C-3.31409356 44.95353287 -3.32183792 38.85232335 -3.32357025 32.75098801 C-3.32660582 30.1521639 -3.33466453 27.55334079 -3.34775543 24.95454788 C-3.36473596 21.32452816 -3.3629551 17.69498429 -3.35644531 14.06494141 C-3.3656601 12.98326187 -3.37487488 11.90158234 -3.3843689 10.78712463 C-3.37879974 9.79998978 -3.37323059 8.81285492 -3.36749268 7.79580688 C-3.36895924 6.93707285 -3.3704258 6.07833881 -3.3719368 5.19358253 C-2.92317911 2.5469312 -2.05009578 1.66594406 0 0 Z " fill="#168083" transform="translate(278,688)"/>
<path d="M0 0 C13.80026615 6.14739129 24.52020702 22.45516816 32.6875 34.625 C33.20489746 35.39513428 33.72229492 36.16526855 34.25537109 36.95874023 C36.44954691 40.3101082 38.1972657 43.03309504 39 47 C38.34 47 37.68 47 37 47 C35.51054549 44.71350268 34.12234999 42.41821313 32.75 40.0625 C24.6583212 26.6480658 14.33781467 13.39243661 2 3.625 C1.34 3.08875 0.68 2.5525 0 2 C0 1.34 0 0.68 0 0 Z " fill="#0D787B" transform="translate(701,497)"/>
<path d="M0 0 C3.21795917 1.34819567 4.6529987 2.5214925 6.33203125 5.5703125 C6.73486328 6.29444336 7.13769531 7.01857422 7.55273438 7.76464844 C7.96845703 8.54356445 8.38417969 9.32248047 8.8125 10.125 C9.24755859 10.92454102 9.68261719 11.72408203 10.13085938 12.54785156 C23.49981471 37.50389115 23.49981471 37.50389115 23 48 C20.54753268 45.54753268 20.31917126 43.90603593 19.4375 40.5625 C15.47720403 27.26827225 8.9397353 14.89113028 1.43359375 3.2734375 C0 1 0 1 0 0 Z " fill="#0E777A" transform="translate(705,269)"/>
<path d="M0 0 C11.99756772 5.68166753 27.81534193 18.76313281 33.28125 30.828125 C33.5184375 31.54484375 33.755625 32.2615625 34 33 C30.3426356 31.52252167 28.65173366 29.57119038 26.3125 26.4375 C19.6242889 17.86476533 12.24892465 11.17537873 3.40625 4.9453125 C1 3 1 3 0 0 Z " fill="#0E777A" transform="translate(606,543)"/>
<path d="M0 0 C13.41013184 3.52898206 24.09823637 13.30760043 31 25 C30.01 25 29.02 25 28 25 C26.52734375 23.3125 26.52734375 23.3125 24.9375 21 C19.06572482 13.14218322 11.42499786 7.96903157 2.93359375 3.2265625 C1 2 1 2 0 0 Z " fill="#0D787B" transform="translate(592,299)"/>
<path d="M0 0 C3.52053278 0.58222328 5.18279542 1.80733581 7.6796875 4.31640625 C8.36160156 4.99896484 9.04351563 5.68152344 9.74609375 6.38476562 C10.44863281 7.10341797 11.15117188 7.82207031 11.875 8.5625 C12.91720703 9.59987305 12.91720703 9.59987305 13.98046875 10.65820312 C23.47104665 20.24708268 23.47104665 20.24708268 26 25 C25.67 25.99 25.34 26.98 25 28 C20 22.25 20 22.25 20 20 C19.34 20 18.68 20 18 20 C16.4140625 18.42578125 16.4140625 18.42578125 14.625 16.3125 C13.99851562 15.57902344 13.37203125 14.84554687 12.7265625 14.08984375 C11.45065648 12.54547786 10.2140548 10.96844693 9 9.375 C6.70025307 6.64405052 4.15200539 4.48524809 1.390625 2.234375 C0.93171875 1.82703125 0.4728125 1.4196875 0 1 C0 0.67 0 0.34 0 0 Z " fill="#077477" transform="translate(677,238)"/>
<path d="M0 0 C7.61908231 0.31974566 13.22247042 3.2552446 19.875 6.8125 C20.91914062 7.34681641 21.96328125 7.88113281 23.0390625 8.43164062 C31.41633065 12.84272807 31.41633065 12.84272807 33 17 C31.29166667 16.14583333 29.58333333 15.29166667 27.875 14.4375 C26.78574219 13.89351562 25.69648437 13.34953125 24.57421875 12.7890625 C22.15796765 11.57961659 19.74376524 10.36679555 17.33203125 9.1484375 C16.72439941 8.84236572 16.11676758 8.53629395 15.49072266 8.22094727 C13.76790755 7.3530086 12.04603957 6.48319072 10.32421875 5.61328125 C6.91945007 3.9609082 3.48908294 2.46373442 0 1 C0 0.67 0 0.34 0 0 Z " fill="#0D7578" transform="translate(624,206)"/>
<path d="M0 0 C-1.21185411 3.63556234 -2.48490383 4.39360739 -5.5 6.6875 C-9.92563959 10.11482721 -14.08668858 13.72335368 -18.1875 17.53125 C-20 19 -20 19 -22 19 C-20.68650524 16.03408263 -19.3614488 14.17278321 -16.8828125 12.08984375 C-16.27566406 11.57486328 -15.66851563 11.05988281 -15.04296875 10.52929688 C-14.09357422 9.74135742 -14.09357422 9.74135742 -13.125 8.9375 C-12.18720703 8.14375977 -12.18720703 8.14375977 -11.23046875 7.33398438 C-2.52538817 0 -2.52538817 0 0 0 Z " fill="#0D7679" transform="translate(555,458)"/>
<path d="M0 0 C4.70468557 0.51308031 7.45854034 2.48219646 11.1875 5.3125 C12.23292969 6.09238281 13.27835938 6.87226563 14.35546875 7.67578125 C16.7424789 9.77367053 17.90825495 11.07305162 19 14 C15.55453516 11.97216828 12.22194131 9.84181089 8.9375 7.5625 C8.10089844 6.98628906 7.26429688 6.41007812 6.40234375 5.81640625 C4.04786888 4.03619354 2.03238671 2.13564885 0 0 Z " fill="#0E777A" transform="translate(681,483)"/>
<path d="M0 0 C0.7265625 1.6015625 0.7265625 1.6015625 1 4 C-0.4765625 7.0234375 -0.4765625 7.0234375 -2.625 10.375 C-2.99238281 10.95209717 -3.35976563 11.52919434 -3.73828125 12.1237793 C-6.24539292 16.00595375 -8.8850339 19.59300583 -12 23 C-12.66 22.67 -13.32 22.34 -14 22 C-13.6596875 21.58492188 -13.319375 21.16984375 -12.96875 20.7421875 C-7.8748294 14.26640546 -3.97803164 7.18872722 0 0 Z " fill="#0C7578" transform="translate(716,433)"/>
<path d="M0 0 C0.33 0 0.66 0 1 0 C1.35627646 5.04208638 0.17090735 8.78771421 -1.875 13.3125 C-2.14441406 13.94478516 -2.41382813 14.57707031 -2.69140625 15.22851562 C-4.72855855 19.86427928 -4.72855855 19.86427928 -7 21 C-5.62820313 13.51747162 -3.07836721 6.94395046 0 0 Z " fill="#0A7073" transform="translate(751,685)"/>
<path d="M0 0 C0.33 0 0.66 0 1 0 C1.22262303 6.7281627 0.95021536 12.53991163 -1 19 C-1.66 19 -2.32 19 -3 19 C-2.54240047 12.4491015 -1.7899856 6.3246158 0 0 Z " fill="#0B7477" transform="translate(731,386)"/>
<path d="M0 0 C3 1 3 1 4.640625 3.80078125 C5.17171875 4.95964844 5.7028125 6.11851562 6.25 7.3125 C6.79140625 8.46363281 7.3328125 9.61476563 7.890625 10.80078125 C8.96692082 13.90460617 9.25547224 15.04380082 8 18 C7.73445312 17.46632813 7.46890625 16.93265625 7.1953125 16.3828125 C6.30233846 14.60270086 5.39971549 12.82742353 4.4921875 11.0546875 C3.95851563 10.00539063 3.42484375 8.95609375 2.875 7.875 C2.33617187 6.82054687 1.79734375 5.76609375 1.2421875 4.6796875 C0 2 0 2 0 0 Z " fill="#117A7D" transform="translate(740,546)"/>
<path d="M0 0 C3.71045247 1.57780923 6.29906384 3.90703248 9.25 6.625 C10.14203125 7.44226563 11.0340625 8.25953125 11.953125 9.1015625 C12.96632813 10.04128906 12.96632813 10.04128906 14 11 C13.01 11.33 12.02 11.66 11 12 C9.16053461 10.38150935 7.32848583 8.75581169 5.5 7.125 C4.97535156 6.66480469 4.45070313 6.20460938 3.91015625 5.73046875 C2.56858245 4.52827924 1.28000815 3.26754054 0 2 C0 1.34 0 0.68 0 0 Z " fill="#117B7F" transform="translate(701,497)"/>
<path d="M0 0 C0.66 0.33 1.32 0.66 2 1 C0.09134118 2.82162878 -1.82606299 4.6321312 -3.75 6.4375 C-4.28882813 6.95376953 -4.82765625 7.47003906 -5.3828125 8.00195312 C-8.20501951 10.63486577 -10.20982766 12.28129751 -14 13 C-11.24160796 9.31999566 -8.37924618 6.50494111 -4.75 3.6875 C-3.41195313 2.64142578 -3.41195313 2.64142578 -2.046875 1.57421875 C-1.37140625 1.05472656 -0.6959375 0.53523437 0 0 Z " fill="#0D7679" transform="translate(357,528)"/>
<path d="M0 0 C0.66 0.33 1.32 0.66 2 1 C0.27860959 2.63396428 -1.45128792 4.25691274 -3.1875 5.875 C-3.91163086 6.56529297 -3.91163086 6.56529297 -4.65039062 7.26953125 C-7.59421881 9.99602984 -10.16905516 11.78138135 -14 13 C-9.99191229 7.69898077 -5.33731159 3.93030788 0 0 Z " fill="#0B7477" transform="translate(315,563)"/>
<path d="M0 0 C0.99 0 1.98 0 3 0 C5.296875 2.30078125 5.296875 2.30078125 7.75 5.3125 C8.56984375 6.29863281 9.3896875 7.28476562 10.234375 8.30078125 C10.81703125 9.19152344 11.3996875 10.08226562 12 11 C11.67 11.99 11.34 12.98 11 14 C9.16369327 11.85664848 7.33085819 9.71049702 5.5 7.5625 C4.71302734 6.64500977 4.71302734 6.64500977 3.91015625 5.70898438 C0 1.11328125 0 1.11328125 0 0 Z " fill="#097174" transform="translate(713,509)"/>
<path d="M0 0 C0 3.95566141 -1.39609149 5.09914371 -3.875 8.125 C-4.59429688 9.01445312 -5.31359375 9.90390625 -6.0546875 10.8203125 C-8 13 -8 13 -10 14 C-9.39056837 10.35175862 -7.84549908 8.1840477 -5.5625 5.3125 C-4.94503906 4.52488281 -4.32757812 3.73726563 -3.69140625 2.92578125 C-2 1 -2 1 0 0 Z " fill="#0B7578" transform="translate(621,397)"/>
<path d="M0 0 C6.28260706 -0.23268915 11.88019467 0.59545452 18 2 C18 2.33 18 2.66 18 3 C15.9377952 3.054348 13.87517184 3.09294961 11.8125 3.125 C10.66394531 3.14820313 9.51539063 3.17140625 8.33203125 3.1953125 C5.08259628 3.00484152 2.91339479 2.39360127 0 1 C0 0.67 0 0.34 0 0 Z " fill="#0B7679" transform="translate(563,293)"/>
<path d="M0 0 C0.66 0.33 1.32 0.66 2 1 C-3.94 6.445 -3.94 6.445 -10 12 C-10.99 11.67 -11.98 11.34 -13 11 C-8.71 7.37 -4.42 3.74 0 0 Z " fill="#0D777A" transform="translate(582,559)"/>
<path d="M0 0 C0.33 0.99 0.66 1.98 1 3 C-1.64 5.64 -4.28 8.28 -7 11 C-7.99 10.67 -8.98 10.34 -10 10 C-6.7 6.7 -3.4 3.4 0 0 Z " fill="#107477" transform="translate(714,748)"/>
<path d="M0 0 C6.44541485 6.26637555 6.44541485 6.26637555 9 10 C8.67 10.99 8.34 11.98 8 13 C3 7.25 3 7.25 3 5 C2.34 5 1.68 5 1 5 C0.67 3.35 0.34 1.7 0 0 Z " fill="#0F797D" transform="translate(694,253)"/>
<path d="M0 0 C3.68285005 2.45523336 3.94619813 3.7847925 5 8 C5.125 11.375 5.125 11.375 5 14 C2.81385576 11.81385576 2.31743465 10.46120051 1.375 7.5625 C1.11460937 6.78003906 0.85421875 5.99757813 0.5859375 5.19140625 C0 3 0 3 0 0 Z " fill="#0D7477" transform="translate(749,566)"/>
<path d="M0 0 C0.66 0 1.32 0 2 0 C2.70180531 1.4096347 3.38593958 2.82807641 4.0625 4.25 C4.44535156 5.03890625 4.82820312 5.8278125 5.22265625 6.640625 C6.08564091 9.25993522 5.93045933 10.44855176 5 13 C0 5.04545455 0 5.04545455 0 0 Z " fill="#0D7679" transform="translate(623,326)"/>
<path d="M0 0 C0.99 0.33 1.98 0.66 3 1 C1.54712339 2.33927721 0.08752741 3.67126847 -1.375 5 C-2.18710937 5.7425 -2.99921875 6.485 -3.8359375 7.25 C-6 9 -6 9 -8 9 C-6.40758592 4.70048197 -3.64459275 2.60328053 0 0 Z " fill="#097578" transform="translate(528,479)"/>
<path d="M0 0 C-1.4258086 3.45195767 -3.09746334 5.1014256 -6.125 7.25 C-7.21167969 8.03117188 -7.21167969 8.03117188 -8.3203125 8.828125 C-8.87460937 9.21484375 -9.42890625 9.6015625 -10 10 C-10.66 9.67 -11.32 9.34 -12 9 C-10.38050958 7.49405319 -8.75424026 5.99539332 -7.125 4.5 C-6.22007812 3.6646875 -5.31515625 2.829375 -4.3828125 1.96875 C-2 0 -2 0 0 0 Z " fill="#0C7679" transform="translate(524,609)"/>
<path d="M0 0 C0.99 0.33 1.98 0.66 3 1 C0.03 3.64 -2.94 6.28 -6 9 C-6.66 8.67 -7.32 8.34 -8 8 C-3.375 2.25 -3.375 2.25 0 0 Z " fill="#097275" transform="translate(302,668)"/>
<path d="M0 0 C-1.07165569 3.21496708 -1.88376774 4.08462512 -4.375 6.25 C-4.98085938 6.79140625 -5.58671875 7.3328125 -6.2109375 7.890625 C-6.80132813 8.25671875 -7.39171875 8.6228125 -8 9 C-8.99 8.67 -9.98 8.34 -11 8 C-9.54712339 6.66072279 -8.08752741 5.32873153 -6.625 4 C-5.81289063 3.2575 -5.00078125 2.515 -4.1640625 1.75 C-2 0 -2 0 0 0 Z " fill="#0E777A" transform="translate(536,599)"/>
<path d="M0 0 C0.9435441 2.53899138 1.16906025 3.60909275 0.07421875 6.140625 C-0.61220703 7.18476562 -0.61220703 7.18476562 -1.3125 8.25 C-1.76238281 8.95640625 -2.21226562 9.6628125 -2.67578125 10.390625 C-3.11277344 10.92171875 -3.54976562 11.4528125 -4 12 C-4.66 12 -5.32 12 -6 12 C-4.68139111 7.38486888 -2.78644563 3.90102388 0 0 Z " fill="#0C7679" transform="translate(738,715)"/>
<path d="M0 0 C-1.16290805 3.48872415 -2.13967609 4.09976864 -5.0625 6.1875 C-5.79597656 6.71730469 -6.52945312 7.24710938 -7.28515625 7.79296875 C-7.85105469 8.19128906 -8.41695313 8.58960938 -9 9 C-9.66 8.67 -10.32 8.34 -11 8 C-9.54712339 6.66072279 -8.08752741 5.32873153 -6.625 4 C-5.81289063 3.2575 -5.00078125 2.515 -4.1640625 1.75 C-2 0 -2 0 0 0 Z " fill="#0D7679" transform="translate(331,551)"/>
<path d="M0 0 C0.99 0.33 1.98 0.66 3 1 C1.8803014 2.00593243 0.7540588 3.0045849 -0.375 4 C-1.00148438 4.556875 -1.62796875 5.11375 -2.2734375 5.6875 C-4 7 -4 7 -6 7 C-4.61990379 3.66476748 -3.15049348 1.81392049 0 0 Z " fill="#0C7578" transform="translate(503,500)"/>
<path d="M0 0 C0.66 0.33 1.32 0.66 2 1 C-1.96 4.465 -1.96 4.465 -6 8 C-6.66 7.67 -7.32 7.34 -8 7 C-5.36 4.69 -2.72 2.38 0 0 Z " fill="#097073" transform="translate(700,762)"/>
<path d="M0 0 C2.72426311 2.35277269 3.8141763 4.62496331 5 8 C4.34 8.66 3.68 9.32 3 10 C0.96564469 6.27034861 0 4.33094958 0 0 Z " fill="#0E777A" transform="translate(644,583)"/>
<path d="M0 0 C-1 1.5 -1 1.5 -3 3 C-5.71846235 3.27345479 -8.25677199 3.13491285 -11 3 C-7.11595442 0.41063628 -4.5725325 -0.12358196 0 0 Z " fill="#0A7376" transform="translate(633,800)"/>
<path d="M0 0 C0.99 0.33 1.98 0.66 3 1 C1.35 2.32 -0.3 3.64 -2 5 C-2.66 4.34 -3.32 3.68 -4 3 C-2.1875 1.4375 -2.1875 1.4375 0 0 Z " fill="#0A8184" transform="translate(283,684)"/>
<path d="M0 0 C0.66 0.33 1.32 0.66 2 1 C-0.64960955 4.63094642 -3.01824456 6.89851796 -7 9 C-5.44499019 5.18315774 -2.96404505 2.80804268 0 0 Z " fill="#036F72" transform="translate(638,674)"/>
<path d="M0 0 C-1.24313463 3.72940389 -2.76985216 4.84656811 -6 7 C-6.99 6.67 -7.98 6.34 -9 6 C-7.8803014 4.99406757 -6.7540588 3.9954151 -5.625 3 C-4.68527344 2.1646875 -4.68527344 2.1646875 -3.7265625 1.3125 C-2 0 -2 0 0 0 Z " fill="#0D7478" transform="translate(445,675)"/>
<path d="M0 0 C0 0.66 0 1.32 0 2 C-2.8125 4.6875 -2.8125 4.6875 -6 7 C-6.99 6.67 -7.98 6.34 -9 6 C-7.8803014 4.99406757 -6.7540588 3.9954151 -5.625 3 C-4.68527344 2.1646875 -4.68527344 2.1646875 -3.7265625 1.3125 C-2 0 -2 0 0 0 Z " fill="#0D777A" transform="translate(597,548)"/>
<path d="M0 0 C0.33 0 0.66 0 1 0 C1.19622241 4.21878192 0.80230168 7.17010894 -1 11 C-1.33 11 -1.66 11 -2 11 C-2.28571429 3.57142857 -2.28571429 3.57142857 0 0 Z " fill="#0D787B" transform="translate(751,685)"/>
<path d="M0 0 C-1.38009621 3.33523252 -2.84950652 5.18607951 -6 7 C-6.99 6.67 -7.98 6.34 -9 6 C-7.8803014 4.99406757 -6.7540588 3.9954151 -5.625 3 C-4.68527344 2.1646875 -4.68527344 2.1646875 -3.7265625 1.3125 C-2 0 -2 0 0 0 Z " fill="#0D7578" transform="translate(567,573)"/>
<path d="M0 0 C4.875 4.625 4.875 4.625 6 8 C2.83884224 6.63016497 2.0072908 6.0109362 0 3 C0 2.01 0 1.02 0 0 Z " fill="#0A7376" transform="translate(634,568)"/>
<path d="M0 0 C0.66 0.33 1.32 0.66 2 1 C-1.465 3.97 -1.465 3.97 -5 7 C-5.66 6.67 -6.32 6.34 -7 6 C-4.69 4.02 -2.38 2.04 0 0 Z " fill="#0C7679" transform="translate(429,687)"/>
<path d="M0 0 C-1.0975223 2.99324263 -1.67682892 3.84610901 -4.625 5.25 C-5.40875 5.4975 -6.1925 5.745 -7 6 C-7 5.34 -7 4.68 -7 4 C-2.52941176 0 -2.52941176 0 0 0 Z " fill="#0F7579" transform="translate(685,475)"/>
</svg>
