<?xml version="1.0" encoding="UTF-8"?>
<svg version="1.1" xmlns="http://www.w3.org/2000/svg" width="1024" height="1024">
<path d="M0 0 C2.28284737 -0.00136184 4.56569451 -0.00314608 6.84854126 -0.00531006 C12.94431095 -0.00979416 19.04006335 -0.00813208 25.13583326 -0.00493097 C31.59475715 -0.00235678 38.0536798 -0.00475901 44.51260376 -0.00631714 C56.05035287 -0.00824073 67.58809428 -0.00517593 79.12584217 -0.0000578 C89.48689339 0.00439706 99.84793337 0.00364006 110.20898438 -0.00097656 C122.35832524 -0.00638779 134.50765814 -0.00828812 146.65700018 -0.0053643 C153.0445537 -0.00382936 159.43209958 -0.00352875 165.81965256 -0.00690079 C188.54327811 -0.01712153 211.26745271 -0.02141149 233.98705602 0.45674157 C235.73628021 0.49339677 237.48556153 0.52744044 239.23489261 0.55858016 C247.45419324 0.71117406 255.31079557 0.8990841 263.28369141 3.12939453 C264.99311474 3.50146399 266.70271044 3.87274397 268.41259766 4.24267578 C298.42317939 10.81812043 324.55830532 21.69489782 349.28369141 40.12939453 C350.15767578 40.75458984 351.03166016 41.37978516 351.93212891 42.02392578 C352.66689453 42.55373047 353.40166016 43.08353516 354.15869141 43.62939453 C354.77486328 44.07283203 355.39103516 44.51626953 356.02587891 44.97314453 C356.44095703 45.35470703 356.85603516 45.73626953 357.28369141 46.12939453 C357.28369141 46.78939453 357.28369141 47.44939453 357.28369141 48.12939453 C357.83798828 48.36013672 358.39228516 48.59087891 358.96337891 48.82861328 C380.86313678 61.10575027 397.53524055 95.15367642 404.22119141 118.00439453 C404.96484272 120.70076289 405.64364505 123.40668949 406.28369141 126.12939453 C406.43918457 126.78665527 406.59467773 127.44391602 406.75488281 128.12109375 C408.66478662 136.41101995 409.93998319 144.63042765 410.28369141 153.12939453 C410.33654297 154.36689453 410.38939453 155.60439453 410.44384766 156.87939453 C411.09959863 180.21062025 406.27855661 203.65963217 397.28369141 225.12939453 C397.01105469 225.79374512 396.73841797 226.4580957 396.45751953 227.14257812 C387.3541516 248.99171235 372.83719511 268.58973025 355.57666016 284.71142578 C354.05909589 286.05587671 354.05909589 286.05587671 354.28369141 288.12939453 C356.60535392 289.94767424 358.94536648 291.67114693 361.34619141 293.37939453 C389.67513811 314.09204465 412.49545912 342.37904355 425.28369141 375.12939453 C425.95851563 376.840625 425.95851563 376.840625 426.64697266 378.58642578 C441.22848804 418.80973912 439.59497738 464.22854572 422.97509766 503.54345703 C417.81786162 514.47727385 411.70702062 524.58222454 404.28369141 534.12939453 C404.61369141 534.78939453 404.94369141 535.44939453 405.28369141 536.12939453 C404.40970703 536.48130859 404.40970703 536.48130859 403.51806641 536.84033203 C400.75904268 538.43207649 399.45389342 540.21204707 397.53369141 542.75439453 C374.58029233 571.40863782 343.21037193 591.09614173 309.28198242 604.33251953 C307.25822274 605.10708908 307.25822274 605.10708908 305.28369141 606.12939453 C303.83159509 606.45897267 302.37170425 606.75461216 300.90869141 607.03173828 C295.01647925 608.17520895 289.15003306 609.42298751 283.28369141 610.69189453 C281.73101563 611.02350586 281.73101563 611.02350586 280.14697266 611.36181641 C279.16083984 611.57515625 278.17470703 611.78849609 277.15869141 612.00830078 C276.26923828 612.19980713 275.37978516 612.39131348 274.46337891 612.58862305 C272.25675841 613.05174422 272.25675841 613.05174422 270.28369141 614.12939453 C267.69615033 614.34206914 265.12571715 614.50596473 262.53369141 614.62939453 C261.12217441 614.70116658 259.71071754 614.77412892 258.29931641 614.84814453 C257.56147626 614.88637585 256.82363611 614.92460716 256.06343716 614.96399701 C252.96268826 615.14849453 249.86928488 615.39576929 246.77260303 615.63903618 C239.98538948 616.12530777 233.24786705 616.27014194 226.44548035 616.25637817 C224.62774918 616.25871816 224.62774918 616.25871816 222.77329618 616.26110542 C219.45477459 616.26437232 216.13631069 616.26323969 212.81779277 616.2601192 C209.22221051 616.25783727 205.62663294 616.26135828 202.03105164 616.26409912 C195.00877269 616.26852437 187.98650449 616.26759537 180.96422514 616.26468648 C175.2604287 616.26242198 169.55663527 616.26212444 163.85283852 616.2632103 C162.63218258 616.26344015 162.63218258 616.26344015 161.38686693 616.26367464 C159.73353614 616.26399438 158.08020535 616.26431859 156.42687456 616.26464723 C140.96209376 616.26749189 125.49731892 616.2642297 110.03253911 616.25884686 C96.75516959 616.25436876 83.47780881 616.25516498 70.20043945 616.25976562 C54.76831952 616.26511041 39.33620476 616.26722883 23.90408403 616.26415336 C22.2610358 616.26383481 20.61798757 616.26352044 18.97493935 616.2632103 C18.16656147 616.26305602 17.35818359 616.26290175 16.52530941 616.2627428 C10.81990805 616.26187817 5.11450997 616.26333912 -0.59089088 616.26568985 C-7.53056833 616.26848648 -14.47023446 616.26775203 -21.4099106 616.26240911 C-24.95232925 616.25977193 -28.49472899 616.25876745 -32.03714752 616.26205826 C-35.86773747 616.26556323 -39.69829607 616.26139326 -43.52888489 616.25637817 C-45.22609931 616.25972426 -45.22609931 616.25972426 -46.95760089 616.26313794 C-47.97507646 616.26053019 -48.99255202 616.25792244 -50.04086018 616.25523567 C-51.36856039 616.25499214 -51.36856039 616.25499214 -52.72308284 616.2547437 C-54.71630859 616.12939453 -54.71630859 616.12939453 -55.71630859 615.12939453 C-55.83161276 613.61495225 -55.8781139 612.09521394 -55.89712524 610.57650757 C-55.91150635 609.59237885 -55.92588745 608.60825012 -55.94070435 607.59429932 C-55.95652054 605.96110748 -55.95652054 605.96110748 -55.97265625 604.29492188 C-55.98725891 603.15509857 -56.00186157 602.01527527 -56.01690674 600.84091187 C-56.1429989 590.31243723 -56.21308919 579.78317478 -56.26474953 569.25407982 C-56.30362862 561.47161445 -56.37190642 553.69060015 -56.47929728 545.90877187 C-56.56106249 539.77651407 -56.59345698 533.64483612 -56.6091423 527.51207352 C-56.6232532 524.9052701 -56.65292955 522.29850281 -56.69844437 519.69205856 C-56.75909497 516.04025339 -56.76317865 512.39243935 -56.75390625 508.74023438 C-56.78469269 507.66358521 -56.81547913 506.58693604 -56.84719849 505.47766113 C-56.74778024 498.27483824 -56.74778024 498.27483824 -53.74244308 494.93742752 C-51.47313918 493.15889924 -49.17697253 491.62722481 -46.71630859 490.12939453 C-41.41469267 485.88224365 -36.19155697 481.54446164 -31.02368164 477.13598633 C-25.41838249 472.3552195 -19.72402206 467.72529842 -13.90356445 463.20874023 C-8.82670571 459.25721975 -3.9226229 455.12359252 0.95556641 450.93017578 C3.28369141 449.12939453 3.28369141 449.12939453 5.28369141 449.12939453 C5.61369141 448.13939453 5.94369141 447.14939453 6.28369141 446.12939453 C7.84570313 444.7590332 7.84570313 444.7590332 9.83837891 443.35986328 C14.18217906 440.22331866 18.29469674 436.87174587 22.40869141 433.44189453 C27.70403621 429.04967221 33.03484192 424.72078193 38.47119141 420.50439453 C43.89119518 416.29383875 49.12045038 411.89656343 54.30908203 407.4050293 C58.41729394 403.85328282 62.60175352 400.42033887 66.86181641 397.05126953 C70.42968929 394.21998976 73.94662945 391.3276303 77.46728516 388.43798828 C79.4140431 386.84224078 81.3648319 385.2514027 83.31884766 383.66455078 C84.78644531 382.47152344 84.78644531 382.47152344 86.28369141 381.25439453 C87.61400391 380.17544922 87.61400391 380.17544922 88.97119141 379.07470703 C91.19010155 377.27238085 91.19010155 377.27238085 92.69897461 375.68041992 C94.35591531 374.05870613 96.07797383 372.73172325 97.95166016 371.36767578 C102.28726066 368.15681658 106.44738264 364.76405951 110.59619141 361.31689453 C112.09478177 360.07718118 113.59347964 358.83759776 115.09228516 357.59814453 C115.8114209 357.00259766 116.53055664 356.40705078 117.27148438 355.79345703 C121.593119 352.21953546 125.94069015 348.67729248 130.28369141 345.12939453 C132.11714177 343.62953758 133.95047312 342.12953513 135.78369141 340.62939453 C136.69763672 339.88173828 137.61158203 339.13408203 138.55322266 338.36376953 C140.32191936 336.91642402 142.09017684 335.46854152 143.85791016 334.02001953 C149.8759561 329.09043929 155.911903 324.18341064 161.95385742 319.28320312 C166.96110986 315.21697794 171.93809412 311.11529201 176.90869141 307.00439453 C182.03970538 302.76163097 187.2127375 298.58804012 192.47119141 294.50439453 C197.80246784 290.36290481 202.93739894 286.03470995 208.03442383 281.609375 C212.58706615 277.67624786 217.27819332 273.95731381 222.03369141 270.27392578 C226.22402641 267.00957998 230.27321807 263.61162916 234.28369141 260.12939453 C238.87573925 256.14286326 243.54236874 252.29564263 248.34619141 248.56689453 C253.17032984 244.81887338 257.92086419 240.99946737 262.59619141 237.06689453 C263.1537915 236.6014624 263.7113916 236.13603027 264.28588867 235.65649414 C267.20285377 233.24067505 267.20285377 233.24067505 269.28369141 230.12939453 C270.00943359 229.70787109 270.73517578 229.28634766 271.48291016 228.85205078 C274.79204194 226.81672705 277.38973072 224.3167164 280.09619141 221.56689453 C280.84932617 220.82536133 280.84932617 220.82536133 281.61767578 220.06884766 C284.43053771 217.57063063 284.43053771 217.57063063 285.28369141 214.12939453 C285.85990234 213.58154297 286.43611328 213.03369141 287.02978516 212.46923828 C298.2457348 200.82564412 301.52734147 181.58594539 301.28369141 166.12939453 C300.09329694 152.02904274 295.76550487 139.53754795 287.28369141 128.12939453 C286.20087891 126.61345703 286.20087891 126.61345703 285.09619141 125.06689453 C273.11004815 111.37924829 253.44378371 104.45666986 235.74121666 102.90679932 C232.97008579 102.7443203 230.20123748 102.62785236 227.42700195 102.53173828 C226.35812335 102.49230606 225.28924475 102.45287384 224.18797588 102.4122467 C209.41292124 101.92947551 194.6301288 102.02056761 179.84935212 102.06093216 C175.61886725 102.07108815 171.38837715 102.07445558 167.15788269 102.07836914 C156.47063998 102.08934018 145.78341954 102.10895152 135.09619141 102.12939453 C123.48497684 102.151506 111.8737705 102.17199562 100.26253909 102.18281269 C95.24727629 102.18777586 90.23205434 102.19760226 85.21680796 102.21124268 C82.1081478 102.21870693 78.99949319 102.2220183 75.89082527 102.22420883 C74.45330724 102.22607771 73.01579024 102.22967241 71.5782814 102.23514175 C69.6133412 102.24238275 67.64837944 102.24281067 65.6834259 102.24291992 C64.58577817 102.24514053 63.48813044 102.24736115 62.35722065 102.24964905 C59.25557498 102.12829445 56.33063563 101.70702662 53.28369141 101.12939453 C53.29290934 102.2249189 53.30212727 103.32044327 53.31162453 104.44916534 C53.53362534 131.1063414 53.69795046 157.76339756 53.80181313 184.4213028 C53.85337571 197.31294102 53.92367203 210.20396858 54.03808594 223.09521484 C54.13776274 234.33135875 54.20227459 245.56706042 54.22457635 256.80363417 C54.23761311 262.75352187 54.26824483 268.70214444 54.34099197 274.65162659 C54.40892816 280.25309637 54.42979618 285.85278154 54.41476822 291.45462418 C54.41751683 293.50898569 54.43737762 295.56340754 54.47574615 297.61741257 C54.7518439 313.1618773 54.7518439 313.1618773 51.07876205 318.08428955 C48.56480684 320.11748854 46.14066846 321.63512584 43.28369141 323.12939453 C41.61936815 324.5877256 39.96848407 326.06194672 38.34619141 327.56689453 C34.97246163 330.64634258 31.53292993 333.58217984 27.97119141 336.44189453 C23.74972766 339.85359937 19.74275073 343.42237081 15.78369141 347.12939453 C10.98990339 351.61800772 6.05473938 355.8385035 0.93603516 359.95751953 C-6.83304487 365.7368958 -6.83304487 365.7368958 -12.71630859 373.12939453 C-13.43560547 373.54962891 -14.15490234 373.96986328 -14.89599609 374.40283203 C-18.27509426 376.47147662 -20.99472303 379.03114531 -23.84130859 381.75439453 C-28.7104245 386.33640169 -33.71172901 390.63823087 -38.93505859 394.81689453 C-42.70828474 397.95418369 -46.28514751 401.28838487 -49.83374023 404.67651367 C-53.50432019 408.12939453 -53.50432019 408.12939453 -55.71630859 408.12939453 C-55.71630859 273.81939453 -55.71630859 139.50939453 -55.71630859 1.12939453 C-37.11035509 0.52920248 -18.59915477 -0.01925783 0 0 Z M271.53369141 354.44189453 C267.59837344 358.0223368 263.54040719 361.36244632 259.34619141 364.62939453 C258.44018188 365.3355188 258.44018188 365.3355188 257.51586914 366.0559082 C256.32358737 366.98416749 255.1309688 367.91199437 253.93798828 368.83935547 C248.25708826 373.26938435 242.6649639 377.80972534 237.09619141 382.37939453 C228.44982894 389.46697616 219.72293164 396.45541758 210.90576172 403.3293457 C205.75156886 407.34912636 200.6859363 411.43981389 195.72119141 415.69189453 C191.07632407 419.67001444 186.32232047 423.44988047 181.44628906 427.14477539 C175.22731219 431.88467938 169.2350632 436.89711471 163.21337891 441.88330078 C159.48613699 444.96879509 155.71926764 448.00059159 151.93212891 451.01220703 C141.05036164 459.71120092 130.28733494 468.56143282 119.51806641 477.39892578 C114.31272673 481.66643191 109.08221658 485.8985575 103.81884766 490.09423828 C101.10339656 492.27413045 98.41123721 494.48074423 95.72119141 496.69189453 C90.97209052 500.5885927 86.15586652 504.38804525 81.28369141 508.12939453 C81.61369141 508.78939453 81.94369141 509.44939453 82.28369141 510.12939453 C102.65200796 510.19979462 123.02029946 510.25253339 143.38871288 510.28483105 C152.84829488 510.30023282 162.30780083 510.32119268 171.76733398 510.35571289 C180.02208762 510.38582193 188.27678612 510.40501799 196.53159314 510.41166002 C200.89353446 510.41553626 205.2553182 510.42450232 209.61720848 510.4465847 C240.92366917 510.88426789 240.92366917 510.88426789 271.28369141 504.12939453 C272.27369141 503.79939453 273.26369141 503.46939453 274.28369141 503.12939453 C288.70839735 496.56377923 300.93693577 488.30551951 311.28369141 476.12939453 C311.28369141 475.13939453 311.28369141 474.14939453 311.28369141 473.12939453 C311.94369141 473.12939453 312.60369141 473.12939453 313.28369141 473.12939453 C314.58256618 471.51321833 314.58256618 471.51321833 315.78369141 469.44189453 C316.20650391 468.75740234 316.62931641 468.07291016 317.06494141 467.36767578 C318.35179063 465.00432769 319.32985928 462.64474215 320.28369141 460.12939453 C320.61369141 459.31083984 320.94369141 458.49228516 321.28369141 457.64892578 C328.31354949 438.61888027 327.8984726 416.80607047 319.43066406 398.26123047 C311.10313519 380.96592635 298.51889133 367.57442307 283.53369141 355.75439453 C282.93741943 355.28404785 282.34114746 354.81370117 281.72680664 354.32910156 C276.92828851 350.65147145 275.89433976 350.35173752 271.53369141 354.44189453 Z " fill="#B1E153" transform="translate(330.71630859375,193.87060546875)"/>
<path d="M0 0 C337.92 0 675.84 0 1024 0 C1023.67 0.99 1023.34 1.98 1023 3 C1023 2.34 1023 1.68 1023 1 C685.74 1 348.48 1 1 1 C1 338.26 1 675.52 1 1023 C338.59 1023 676.18 1023 1024 1023 C1024 1023.33 1024 1023.66 1024 1024 C686.08 1024 348.16 1024 0 1024 C0 686.08 0 348.16 0 0 Z " fill="#8A9165" transform="translate(0,0)"/>
<path d="M0 0 C0.66 0 1.32 0 2 0 C2 37.95 2 75.9 2 115 C101.99 115 201.98 115 305 115 C305 115.33 305 115.66 305 116 C298.62058288 117.14435231 292.3588192 117.13970321 285.88967896 117.12698364 C284.06254327 117.12932363 284.06254327 117.12932363 282.19849575 117.13171089 C278.82995461 117.13500298 275.46146945 117.13382679 272.09293175 117.13072467 C268.45564458 117.12845902 264.81836225 117.13195589 261.18107605 117.13470459 C254.06225223 117.13914798 246.94343895 117.13819241 239.82461472 117.13529195 C234.04198953 117.13303337 228.2593673 117.13272737 222.47674179 117.13381577 C221.65369665 117.133969 220.83065152 117.13412223 219.98266562 117.13428011 C218.31073309 117.13459983 216.63880056 117.13492404 214.96686803 117.1352527 C199.29657731 117.13810302 183.62629245 117.13482692 167.9560027 117.12945233 C154.49833481 117.1249797 141.04067555 117.12576487 127.58300781 117.13037109 C111.95939838 117.13571615 96.33579406 117.13783364 80.71218383 117.13475883 C79.04824376 117.13444027 77.38430369 117.1341259 75.72036362 117.13381577 C74.90162849 117.13366149 74.08289337 117.13350721 73.23934809 117.13334826 C67.45788492 117.13248327 61.67642498 117.13394549 55.89496231 117.13629532 C48.85813106 117.13909253 41.82131097 117.13835653 34.784481 117.13301457 C31.19147944 117.13037725 27.59849652 117.12937308 24.00549507 117.13266373 C20.11979244 117.13616882 16.2341207 117.13199854 12.34841919 117.12698364 C10.62653324 117.13032973 10.62653324 117.13032973 8.86986172 117.13374341 C7.83761908 117.13113566 6.80537644 117.12852791 5.74185371 117.12584114 C4.84381244 117.12567879 3.94577116 117.12551644 3.02051651 117.12534916 C1 117 1 117 0 116 C-0.09575309 114.49448826 -0.12188187 112.9844897 -0.12025452 111.47593689 C-0.12162918 110.49852036 -0.12300385 109.52110382 -0.12442017 108.5140686 C-0.12082489 107.43297821 -0.11722961 106.35188782 -0.11352539 105.23803711 C-0.11367142 104.1064769 -0.11381744 102.97491669 -0.1139679 101.80906677 C-0.11326819 98.04847329 -0.10547311 94.28792863 -0.09765625 90.52734375 C-0.09579227 87.92802457 -0.09436828 85.32870503 -0.09336853 82.72938538 C-0.08993341 76.57411423 -0.08204256 70.4188634 -0.07201904 64.26359993 C-0.06085694 57.25766654 -0.05534721 50.25173233 -0.05032361 43.24579227 C-0.03985992 28.83051867 -0.02226108 14.41525996 0 0 Z " fill="#A1D73E" transform="translate(276,692)"/>
<path d="M0 0 C19.98646343 2.01913027 19.98646343 2.01913027 25.85546875 7.08203125 C22.22279658 7.34783653 20.04949429 7.17039932 16.69921875 5.64453125 C12.52049868 3.77398279 8.44292735 3.31717091 3.91796875 2.89453125 C2.74911133 2.77174805 2.74911133 2.77174805 1.55664062 2.64648438 C-0.34273922 2.44838954 -2.24351887 2.26379284 -4.14453125 2.08203125 C-2.14453125 0.08203125 -2.14453125 0.08203125 0 0 Z " fill="#A7DD42" transform="translate(564.14453125,292.91796875)"/>
<path d="M0 0 C2.61376953 -0.34057617 2.61376953 -0.34057617 5.8828125 -0.29296875 C7.04941406 -0.28330078 8.21601562 -0.27363281 9.41796875 -0.26367188 C10.64128906 -0.23853516 11.86460937 -0.21339844 13.125 -0.1875 C14.35605469 -0.17396484 15.58710937 -0.16042969 16.85546875 -0.14648438 C19.90407843 -0.11103543 22.951825 -0.06162079 26 0 C26.33 0.66 26.66 1.32 27 2 C25.72125 1.979375 24.4425 1.95875 23.125 1.9375 C19.73008624 1.93218715 16.43545745 2.12047547 13.0625 2.5 C8.02844175 3.06109597 3.05992601 3.0968922 -2 3 C-1.34 2.01 -0.68 1.02 0 0 Z " fill="#C1E46F" transform="translate(576,806)"/>
<path d="M0 0 C0.33 0 0.66 0 1 0 C1.08156437 2.85475306 1.14076372 5.70713565 1.1875 8.5625 C1.21263672 9.36236328 1.23777344 10.16222656 1.26367188 10.98632812 C1.33054885 16.44794805 0.4909519 20.12924103 -2 25 C-2.33 25 -2.66 25 -3 25 C-2.90912109 24.12601562 -2.90912109 24.12601562 -2.81640625 23.234375 C-2.21502813 17.35012141 -1.71196834 11.46570923 -1.28125 5.56640625 C-1 3 -1 3 0 0 Z " fill="#C0E569" transform="translate(633,360)"/>
<path d="M0 0 C0.33 0.66 0.66 1.32 1 2 C0.29875 2.515625 -0.4025 3.03125 -1.125 3.5625 C-4.49467357 6.41939716 -7.21156604 9.58871997 -10 13 C-10.99 12.34 -11.98 11.68 -13 11 C-12.36191406 10.44570313 -11.72382812 9.89140625 -11.06640625 9.3203125 C-10.24011719 8.59585937 -9.41382813 7.87140625 -8.5625 7.125 C-7.73878906 6.40570313 -6.91507813 5.68640625 -6.06640625 4.9453125 C-3.94017845 3.16761255 -3.94017845 3.16761255 -3 1 C-2.01 0.67 -1.02 0.34 0 0 Z " fill="#BAE461" transform="translate(603,423)"/>
<path d="M0 0 C6.61085476 0.48969295 11.94977014 2.33442742 18 5 C15 7 15 7 12.84375 6.57421875 C12.0703125 6.28160156 11.296875 5.98898438 10.5 5.6875 C9.7265625 5.40261719 8.953125 5.11773437 8.15625 4.82421875 C7.4446875 4.55222656 6.733125 4.28023437 6 4 C5.01 3.67 4.02 3.34 3 3 C1 2 1 2 0 0 Z " fill="#BCE364" transform="translate(616,203)"/>
<path d="M0 0 C3.85025879 0.60355408 6.86101159 1.76772603 10.3125 3.5625 C11.19550781 4.01753906 12.07851563 4.47257813 12.98828125 4.94140625 C13.65214844 5.29074219 14.31601562 5.64007813 15 6 C13.32421875 7.13671875 13.32421875 7.13671875 11 8 C8.45703125 7.20703125 8.45703125 7.20703125 5.8125 5.8125 C4.93207031 5.36519531 4.05164063 4.91789063 3.14453125 4.45703125 C1 3 1 3 0 0 Z " fill="#B8E15F" transform="translate(639,211)"/>
<path d="M0 0 C0.33 0.66 0.66 1.32 1 2 C0.10333658 4.24310013 -0.89146683 6.44754321 -1.9375 8.625 C-2.50339844 9.81351562 -3.06929687 11.00203125 -3.65234375 12.2265625 C-4.09707031 13.14179688 -4.54179688 14.05703125 -5 15 C-5.33 15 -5.66 15 -6 15 C-5.46147465 9.72245155 -4.34981281 5.69962561 -2 1 C-1.34 0.67 -0.68 0.34 0 0 Z " fill="#B9E460" transform="translate(726,419)"/>
<path d="M0 0 C0.99 0.66 1.98 1.32 3 2 C1.21385682 3.03046722 -0.57910018 4.04913236 -2.375 5.0625 C-3.87160156 5.91521484 -3.87160156 5.91521484 -5.3984375 6.78515625 C-6.25695312 7.18605469 -7.11546875 7.58695313 -8 8 C-8.66 7.67 -9.32 7.34 -10 7 C-7.2180632 3.72713318 -3.72045933 2.03572303 0 0 Z " fill="#BAE361" transform="translate(671,780)"/>
<path d="M0 0 C3.2428329 3.72925783 5.5119901 8.30238735 7 13 C6.67 13.99 6.34 14.98 6 16 C2.54218761 13.32805406 2.09540019 10.08949403 1 6 C0.34 5.01 -0.32 4.02 -1 3 C-0.67 2.01 -0.34 1.02 0 0 Z " fill="#BBE267" transform="translate(748,553)"/>
<path d="M0 0 C5.56890517 0.47986031 10.67067568 1.29915181 16 3 C12.45049966 4.16306443 9.44176052 3.92365049 5.75 3.5625 C4.67234375 3.46066406 3.5946875 3.35882813 2.484375 3.25390625 C1.66453125 3.17011719 0.8446875 3.08632812 0 3 C0 2.01 0 1.02 0 0 Z " fill="#C0E568" transform="translate(600,199)"/>
<path d="M0 0 C1.32 0.33 2.64 0.66 4 1 C2.21475351 2.19713017 0.4215972 3.38247279 -1.375 4.5625 C-2.87160156 5.55443359 -2.87160156 5.55443359 -4.3984375 6.56640625 C-5.25695312 7.03949219 -6.11546875 7.51257813 -7 8 C-7.66 7.67 -8.32 7.34 -9 7 C-6.16569547 3.7457985 -4.31392226 2.4793247 0 2 C0 1.34 0 0.68 0 0 Z " fill="#B8E260" transform="translate(683,773)"/>
<path d="M0 0 C0.66 0.33 1.32 0.66 2 1 C-0.31 3.64 -2.62 6.28 -5 9 C-6.32 8.67 -7.64 8.34 -9 8 C-6.03 5.36 -3.06 2.72 0 0 Z " fill="#B9E35F" transform="translate(538,476)"/>
<path d="M0 0 C0.66 0.33 1.32 0.66 2 1 C-0.31 3.64 -2.62 6.28 -5 9 C-6.32 8.67 -7.64 8.34 -9 8 C-6.03 5.36 -3.06 2.72 0 0 Z " fill="#BAE461" transform="translate(577,444)"/>
<path d="M0 0 C0.33 0 0.66 0 1 0 C1 7.59 1 15.18 1 23 C0.67 23 0.34 23 0 23 C-1.24299065 7.19626168 -1.24299065 7.19626168 -1 1 C-0.67 0.67 -0.34 0.34 0 0 Z " fill="#AED757" transform="translate(273,722)"/>
<path d="M0 0 C-1.28892677 2.87529818 -2.49296383 5.05008298 -5 7 C-7.6875 7.6875 -7.6875 7.6875 -10 8 C-9.34 7.01 -8.68 6.02 -8 5 C-7.34 5 -6.68 5 -6 5 C-5.67 4.01 -5.34 3.02 -5 2 C-2 0 -2 0 0 0 Z " fill="#B9E25D" transform="translate(342,638)"/>
<path d="M0 0 C0.66 0.33 1.32 0.66 2 1 C-3.0940919 7.70459519 -3.0940919 7.70459519 -6.875 8.9375 C-7.57625 8.958125 -8.2775 8.97875 -9 9 C-6 6 -3 3 0 0 Z " fill="#BCE462" transform="translate(352,628)"/>
<path d="M0 0 C0.66 0.33 1.32 0.66 2 1 C-0.31 3.64 -2.62 6.28 -5 9 C-6.32 8.67 -7.64 8.34 -9 8 C-6.03 5.36 -3.06 2.72 0 0 Z " fill="#BBE463" transform="translate(588,435)"/>
<path d="M0 0 C0.66 0.33 1.32 0.66 2 1 C-0.46713852 5.81092012 -0.46713852 5.81092012 -2.9375 6.6875 C-3.618125 6.790625 -4.29875 6.89375 -5 7 C-6.3479743 7.63654342 -7.68596724 8.29605388 -9 9 C-6.31941902 5.42589203 -3.57410797 2.68058098 0 0 Z " fill="#BEE666" transform="translate(313,660)"/>
<path d="M0 0 C0.66 0.33 1.32 0.66 2 1 C-1.33562767 5.51290803 -3.33289301 7.68206814 -9 9 C-6.31941902 5.42589203 -3.57410797 2.68058098 0 0 Z " fill="#BAE460" transform="translate(417,575)"/>
<path d="M0 0 C0.99 0 1.98 0 3 0 C3.55827609 1.26362492 4.09612097 2.5362919 4.625 3.8125 C4.92664063 4.52019531 5.22828125 5.22789062 5.5390625 5.95703125 C5.69117188 6.63121094 5.84328125 7.30539062 6 8 C5.01 9.485 5.01 9.485 4 11 C3.32880451 9.5437455 2.66318193 8.08492133 2 6.625 C1.62875 5.81289063 1.2575 5.00078125 0.875 4.1640625 C0 2 0 2 0 0 Z " fill="#BAE361" transform="translate(648,588)"/>
<path d="M0 0 C0.66 0.33 1.32 0.66 2 1 C0.02 3.31 -1.96 5.62 -4 8 C-5.32 7.67 -6.64 7.34 -8 7 C-5.36 4.69 -2.72 2.38 0 0 Z " fill="#B9E35E" transform="translate(516,494)"/>
<path d="M0 0 C0.66 0.33 1.32 0.66 2 1 C0.02 3.31 -1.96 5.62 -4 8 C-5.32 7.67 -6.64 7.34 -8 7 C-5.36 4.69 -2.72 2.38 0 0 Z " fill="#BBE463" transform="translate(549,467)"/>
<path d="M0 0 C0.33 0 0.66 0 1 0 C1.08096803 1.45742463 1.13917774 2.91612807 1.1875 4.375 C1.22230469 5.18710937 1.25710938 5.99921875 1.29296875 6.8359375 C1.19628906 7.55007813 1.09960938 8.26421875 1 9 C0.01 9.66 -0.98 10.32 -2 11 C-1.85957123 9.35369672 -1.71250671 7.70795821 -1.5625 6.0625 C-1.48128906 5.14597656 -1.40007813 4.22945312 -1.31640625 3.28515625 C-1 1 -1 1 0 0 Z " fill="#ABDD4C" transform="translate(761,663)"/>
<path d="M0 0 C0.33 0 0.66 0 1 0 C1.11138159 5.45769811 0.91657981 10.61509359 0 16 C-0.33 16 -0.66 16 -1 16 C-1.33 12.37 -1.66 8.74 -2 5 C-1.67 5 -1.34 5 -1 5 C-0.67 3.35 -0.34 1.7 0 0 Z " fill="#C0E470" transform="translate(765,642)"/>
<path d="M0 0 C0.66 0.33 1.32 0.66 2 1 C-0.46713852 5.81092012 -0.46713852 5.81092012 -2.9375 6.6875 C-3.618125 6.790625 -4.29875 6.89375 -5 7 C-6.3479743 7.63654342 -7.68596724 8.29605388 -9 9 C-6.31941902 5.42589203 -3.57410797 2.68058098 0 0 Z " fill="#C2E86A" transform="translate(489,516)"/>
<path d="M0 0 C2.52480693 2.52480693 2.55738633 4.13823034 3.125 7.625 C3.29257812 8.62789062 3.46015625 9.63078125 3.6328125 10.6640625 C3.75398437 11.43492187 3.87515625 12.20578125 4 13 C3.67 12.34 3.34 11.68 3 11 C2.34 11 1.68 11 1 11 C0 3.375 0 3.375 0 0 Z " fill="#C1E470" transform="translate(758,578)"/>
<path d="M0 0 C4.75 0.75 4.75 0.75 7 3 C6.67 3.99 6.34 4.98 6 6 C3.97945196 4.35830472 1.97956942 2.69088222 0 1 C0 0.67 0 0.34 0 0 Z " fill="#B8E35B" transform="translate(611,547)"/>
<path d="M0 0 C1.25541557 3.76624671 0.37061958 5.37188934 -1 9 C-3 6 -3 6 -2.75 3.375 C-2.5025 2.59125 -2.255 1.8075 -2 1 C-1.34 0.67 -0.68 0.34 0 0 Z " fill="#BCE468" transform="translate(760,673)"/>
<path d="M0 0 C2.62187494 1.04874998 3.79371361 1.64931313 5.25 4.125 C5.4975 4.74375 5.745 5.3625 6 6 C5.01 7.485 5.01 7.485 4 9 C0 2.25 0 2.25 0 0 Z " fill="#BDE466" transform="translate(643,579)"/>
<path d="M0 0 C3.0916909 2.52956528 3.90931332 5.22454612 5 9 C4.01 8.67 3.02 8.34 2 8 C1.26953125 6.15234375 1.26953125 6.15234375 0.8125 3.9375 C0.65394531 3.20402344 0.49539063 2.47054687 0.33203125 1.71484375 C0.22246094 1.14894531 0.11289062 0.58304688 0 0 Z " fill="#BAE263" transform="translate(741,541)"/>
<path d="M0 0 C-1.04874998 2.62187494 -1.64931313 3.79371361 -4.125 5.25 C-4.74375 5.4975 -5.3625 5.745 -6 6 C-5.67 5.01 -5.34 4.02 -5 3 C-5.33 2.34 -5.66 1.68 -6 1 C-3.92446352 0.4465236 -2.15634036 0 0 0 Z " fill="#B8E45C" transform="translate(606,544)"/>
<path d="M0 0 C0.66 1.32 1.32 2.64 2 4 C0.625 6 0.625 6 -1 8 C-1.66 8 -2.32 8 -3 8 C-1.125 2.25 -1.125 2.25 0 0 Z " fill="#BBE360" transform="translate(626,393)"/>
<path d="M0 0 C1.45606519 4.52092968 0.27032841 7.51648796 -1 12 C-1.94314127 8.58389775 -2.08065117 5.54865136 -2 2 C-1.34 2 -0.68 2 0 2 C0 1.34 0 0.68 0 0 Z " fill="#C6E679" transform="translate(736,387)"/>
<path d="M0 0 C1.485 0.99 1.485 0.99 3 2 C2.67 5.63 2.34 9.26 2 13 C1.67 13 1.34 13 1 13 C0.67 8.71 0.34 4.42 0 0 Z " fill="#CAEA7A" transform="translate(631,347)"/>
<path d="M0 0 C3.37503669 1.1858237 5.64722731 2.27573689 8 5 C7.01 5.33 6.02 5.66 5 6 C3.31237149 4.3545622 1.6459651 2.68711423 0 1 C0 0.67 0 0.34 0 0 Z " fill="#B8E25D" transform="translate(659,221)"/>
<path d="M0 0 C0.33 0 0.66 0 1 0 C1 3.96 1 7.92 1 12 C0.34 11.67 -0.32 11.34 -1 11 C-1.02688151 9.35425434 -1.04634123 7.70838587 -1.0625 6.0625 C-1.07410156 5.14597656 -1.08570313 4.22945312 -1.09765625 3.28515625 C-1 1 -1 1 0 0 Z " fill="#AFD759" transform="translate(273,706)"/>
<path d="M0 0 C0.33 0 0.66 0 1 0 C1 2.31 1 4.62 1 7 C0.34 6.34 -0.32 5.68 -1 5 C-0.625 2.375 -0.625 2.375 0 0 Z " fill="#AED656" transform="translate(273,762)"/>
<path d="M0 0 C1.65 0 3.3 0 5 0 C4.34 0.66 3.68 1.32 3 2 C2.01 2 1.02 2 0 2 C0 1.34 0 0.68 0 0 Z " fill="#B6DE59" transform="translate(459,536)"/>
<path d="M0 0 C0.33 0 0.66 0 1 0 C1 1.98 1 3.96 1 6 C0.67 6 0.34 6 0 6 C0 4.02 0 2.04 0 0 Z " fill="#ABD456" transform="translate(273,781)"/>
<path d="M0 0 C0.66 0 1.32 0 2 0 C2 1.65 2 3.3 2 5 C0 1.125 0 1.125 0 0 Z " fill="#ADD656" transform="translate(272,771)"/>
<path d="M0 0 C0.66 0 1.32 0 2 0 C2 1.65 2 3.3 2 5 C0 1.125 0 1.125 0 0 Z " fill="#AFD758" transform="translate(272,747)"/>
<path d="M0 0 C0.66 0 1.32 0 2 0 C2 1.65 2 3.3 2 5 C0 1.125 0 1.125 0 0 Z " fill="#B0D859" transform="translate(272,475)"/>
<path d="M0 0 C0.66 0 1.32 0 2 0 C2 1.65 2 3.3 2 5 C0 1.125 0 1.125 0 0 Z " fill="#B2DA5A" transform="translate(272,395)"/>
<path d="M0 0 C0.33 0 0.66 0 1 0 C1 1.65 1 3.3 1 5 C0.67 5 0.34 5 0 5 C0 3.35 0 1.7 0 0 Z " fill="#A6CD55" transform="translate(273,803)"/>
<path d="M0 0 C0.33 0 0.66 0 1 0 C1 1.65 1 3.3 1 5 C0.67 5 0.34 5 0 5 C0 3.35 0 1.7 0 0 Z " fill="#B0D759" transform="translate(273,515)"/>
<path d="M0 0 C0.33 0 0.66 0 1 0 C1 1.65 1 3.3 1 5 C0.67 5 0.34 5 0 5 C0 3.35 0 1.7 0 0 Z " fill="#B0D859" transform="translate(273,483)"/>
<path d="M0 0 C0.66 0 1.32 0 2 0 C1.67 0.99 1.34 1.98 1 3 C0.67 2.01 0.34 1.02 0 0 Z " fill="#A9D155" transform="translate(272,797)"/>
<path d="M0 0 C0.66 0 1.32 0 2 0 C1.67 0.99 1.34 1.98 1 3 C0.67 2.01 0.34 1.02 0 0 Z " fill="#ADD458" transform="translate(272,693)"/>
<path d="M0 0 C1 4 1 4 1 4 Z " fill="#B0D85A" transform="translate(273,524)"/>
<path d="M0 0 C1 4 1 4 1 4 Z " fill="#B0DA59" transform="translate(273,492)"/>
<path d="M0 0 C1 4 1 4 1 4 Z " fill="#B1DB5A" transform="translate(273,404)"/>
<path d="M0 0 C1 4 1 4 1 4 Z " fill="#B1D85B" transform="translate(273,268)"/>
<path d="M0 0 C0.99 0 1.98 0 3 0 C2.67 0.66 2.34 1.32 2 2 C1.34 1.34 0.68 0.68 0 0 Z " fill="#B1DB57" transform="translate(642,210)"/>
<path d="" fill="#B0D958" transform="translate(0,0)"/>
<path d="M0 0 C0.33 0.66 0.66 1.32 1 2 C0.34 1.67 -0.32 1.34 -1 1 C-0.67 0.67 -0.34 0.34 0 0 Z " fill="#B9E15D" transform="translate(463,662)"/>
<path d="" fill="#AED758" transform="translate(0,0)"/>
<path d="" fill="#AFD759" transform="translate(0,0)"/>
<path d="" fill="#AFD758" transform="translate(0,0)"/>
<path d="M0 0 C0.33 0.66 0.66 1.32 1 2 C0.34 1.67 -0.32 1.34 -1 1 C-0.67 0.67 -0.34 0.34 0 0 Z " fill="#B9DF60" transform="translate(327,558)"/>
<path d="" fill="#B0D858" transform="translate(0,0)"/>
<path d="" fill="#AED858" transform="translate(0,0)"/>
<path d="" fill="#B1D95A" transform="translate(0,0)"/>
<path d="" fill="#B0D859" transform="translate(0,0)"/>
<path d="M0 0 C0.33 0.66 0.66 1.32 1 2 C0.34 1.67 -0.32 1.34 -1 1 C-0.67 0.67 -0.34 0.34 0 0 Z " fill="#B8DB5E" transform="translate(695,470)"/>
<path d="" fill="#B1D95B" transform="translate(0,0)"/>
<path d="" fill="#B2DA5B" transform="translate(0,0)"/>
<path d="" fill="#B1D95B" transform="translate(0,0)"/>
<path d="" fill="#B1DA5B" transform="translate(0,0)"/>
<path d="" fill="#B1D958" transform="translate(0,0)"/>
<path d="" fill="#B0D85A" transform="translate(0,0)"/>
<path d="M0 0 C2 1 2 1 2 1 Z " fill="#B6DA5B" transform="translate(604,807)"/>
<path d="M0 0 C2 1 2 1 2 1 Z " fill="#B2D95A" transform="translate(659,790)"/>
<path d="" fill="#ABD555" transform="translate(0,0)"/>
<path d="M0 0 C2 1 2 1 2 1 Z " fill="#AED557" transform="translate(272,779)"/>
<path d="M0 0 C2 1 2 1 2 1 Z " fill="#B2D958" transform="translate(686,775)"/>
<path d="M0 0 C2 1 2 1 2 1 Z " fill="#AED758" transform="translate(272,755)"/>
<path d="" fill="#ADD659" transform="translate(0,0)"/>
<path d="M0 0 C2 1 2 1 2 1 Z " fill="#BBE45E" transform="translate(413,702)"/>
<path d="M0 0 C2 1 2 1 2 1 Z " fill="#BADF5F" transform="translate(422,695)"/>
<path d="M0 0 C2 1 2 1 2 1 Z " fill="#B8E15C" transform="translate(632,676)"/>
<path d="" fill="#B9E25D" transform="translate(0,0)"/>
<path d="" fill="#ADD756" transform="translate(0,0)"/>
<path d="M0 0 C2 1 2 1 2 1 Z " fill="#B0D758" transform="translate(272,571)"/>
<path d="" fill="#AFD85A" transform="translate(0,0)"/>
<path d="" fill="#B6E056" transform="translate(0,0)"/>
<path d="M0 0 C2 1 2 1 2 1 Z " fill="#BBDE63" transform="translate(686,479)"/>
<path d="" fill="#B6E15C" transform="translate(0,0)"/>
<path d="" fill="#B0D85A" transform="translate(0,0)"/>
<path d="" fill="#B1D95A" transform="translate(0,0)"/>
<path d="" fill="#B2D75F" transform="translate(0,0)"/>
<path d="" fill="#B2DA5A" transform="translate(0,0)"/>
<path d="" fill="#B4DB5B" transform="translate(0,0)"/>
<path d="" fill="#B8E159" transform="translate(0,0)"/>
<path d="M0 0 C2 1 2 1 2 1 Z " fill="#B2D85A" transform="translate(272,315)"/>
<path d="" fill="#B3D95C" transform="translate(0,0)"/>
<path d="M0 0 C2 1 2 1 2 1 Z " fill="#B7E15A" transform="translate(587,302)"/>
<path d="" fill="#B2D95B" transform="translate(0,0)"/>
<path d="" fill="#B1D85A" transform="translate(0,0)"/>
<path d="M0 0 C2 1 2 1 2 1 Z " fill="#ADD656" transform="translate(667,224)"/>
<path d="" fill="#AFD659" transform="translate(0,0)"/>
<path d="M0 0 C2 1 2 1 2 1 Z " fill="#AFD658" transform="translate(637,208)"/>
<path d="M0 0 C2 1 2 1 2 1 Z " fill="#B3DB59" transform="translate(590,195)"/>
<path d="" fill="#586A31" transform="translate(0,0)"/>
<path d="" fill="#B0D857" transform="translate(0,0)"/>
<path d="" fill="#B0D757" transform="translate(0,0)"/>
<path d="" fill="#ACD255" transform="translate(0,0)"/>
<path d="" fill="#B2DB56" transform="translate(0,0)"/>
<path d="" fill="#B0D656" transform="translate(0,0)"/>
<path d="" fill="#B5D85C" transform="translate(0,0)"/>
<path d="" fill="#A9D455" transform="translate(0,0)"/>
<path d="" fill="#ABD357" transform="translate(0,0)"/>
<path d="" fill="#B0D656" transform="translate(0,0)"/>
<path d="" fill="#AED557" transform="translate(0,0)"/>
<path d="" fill="#AFD658" transform="translate(0,0)"/>
<path d="" fill="#ADD558" transform="translate(0,0)"/>
<path d="" fill="#ADD858" transform="translate(0,0)"/>
<path d="" fill="#B0D657" transform="translate(0,0)"/>
<path d="" fill="#B1D65C" transform="translate(0,0)"/>
<path d="" fill="#AFD15B" transform="translate(0,0)"/>
<path d="" fill="#AFD659" transform="translate(0,0)"/>
<path d="" fill="#B9E45C" transform="translate(0,0)"/>
<path d="" fill="#B7DF51" transform="translate(0,0)"/>
<path d="" fill="#BBE25E" transform="translate(0,0)"/>
<path d="" fill="#B6E25B" transform="translate(0,0)"/>
<path d="" fill="#B9E15C" transform="translate(0,0)"/>
<path d="" fill="#ACD558" transform="translate(0,0)"/>
<path d="" fill="#B1D85B" transform="translate(0,0)"/>
<path d="" fill="#B5DB5A" transform="translate(0,0)"/>
<path d="" fill="#B9E15B" transform="translate(0,0)"/>
<path d="" fill="#B1DB5B" transform="translate(0,0)"/>
<path d="" fill="#B5DC5B" transform="translate(0,0)"/>
<path d="" fill="#B3D959" transform="translate(0,0)"/>
<path d="" fill="#AFD957" transform="translate(0,0)"/>
<path d="" fill="#BAE25D" transform="translate(0,0)"/>
<path d="" fill="#B9E15C" transform="translate(0,0)"/>
<path d="" fill="#B5DA5A" transform="translate(0,0)"/>
<path d="" fill="#BADF5B" transform="translate(0,0)"/>
<path d="" fill="#BDE45D" transform="translate(0,0)"/>
<path d="" fill="#B8E15A" transform="translate(0,0)"/>
<path d="" fill="#B4E158" transform="translate(0,0)"/>
<path d="" fill="#BDE161" transform="translate(0,0)"/>
<path d="" fill="#BCDC64" transform="translate(0,0)"/>
<path d="" fill="#B9E35E" transform="translate(0,0)"/>
<path d="" fill="#B9E15E" transform="translate(0,0)"/>
<path d="" fill="#B8E359" transform="translate(0,0)"/>
<path d="" fill="#B1DA5A" transform="translate(0,0)"/>
<path d="" fill="#B7DF54" transform="translate(0,0)"/>
<path d="" fill="#B8E15A" transform="translate(0,0)"/>
<path d="" fill="#BAE45B" transform="translate(0,0)"/>
<path d="" fill="#BAE35B" transform="translate(0,0)"/>
<path d="" fill="#BCDD62" transform="translate(0,0)"/>
<path d="" fill="#B1DF55" transform="translate(0,0)"/>
<path d="" fill="#ACD559" transform="translate(0,0)"/>
<path d="" fill="#B4DB5C" transform="translate(0,0)"/>
<path d="" fill="#B2DD56" transform="translate(0,0)"/>
<path d="" fill="#BCE459" transform="translate(0,0)"/>
<path d="" fill="#ADD758" transform="translate(0,0)"/>
<path d="" fill="#BDDE61" transform="translate(0,0)"/>
<path d="" fill="#B9DE5A" transform="translate(0,0)"/>
<path d="" fill="#BBE15E" transform="translate(0,0)"/>
<path d="" fill="#B9E05B" transform="translate(0,0)"/>
<path d="" fill="#B1D85C" transform="translate(0,0)"/>
<path d="" fill="#B7E159" transform="translate(0,0)"/>
<path d="" fill="#B7E061" transform="translate(0,0)"/>
<path d="" fill="#B8E25B" transform="translate(0,0)"/>
<path d="" fill="#B1D95B" transform="translate(0,0)"/>
<path d="" fill="#B8E35C" transform="translate(0,0)"/>
<path d="" fill="#B7E05B" transform="translate(0,0)"/>
<path d="" fill="#B8E15D" transform="translate(0,0)"/>
<path d="" fill="#B9E359" transform="translate(0,0)"/>
<path d="" fill="#B0D658" transform="translate(0,0)"/>
<path d="" fill="#B7E254" transform="translate(0,0)"/>
<path d="" fill="#B7DB5A" transform="translate(0,0)"/>
<path d="" fill="#B8E35A" transform="translate(0,0)"/>
<path d="" fill="#B9DF60" transform="translate(0,0)"/>
<path d="" fill="#B8E65A" transform="translate(0,0)"/>
<path d="" fill="#BAE45F" transform="translate(0,0)"/>
<path d="" fill="#B3DB57" transform="translate(0,0)"/>
<path d="" fill="#B7E55B" transform="translate(0,0)"/>
<path d="" fill="#B7E05D" transform="translate(0,0)"/>
<path d="" fill="#B7E25B" transform="translate(0,0)"/>
<path d="" fill="#BBE55D" transform="translate(0,0)"/>
<path d="" fill="#BADA60" transform="translate(0,0)"/>
<path d="" fill="#B0D758" transform="translate(0,0)"/>
<path d="" fill="#AFD959" transform="translate(0,0)"/>
<path d="" fill="#BAE35D" transform="translate(0,0)"/>
<path d="" fill="#B6DF59" transform="translate(0,0)"/>
<path d="" fill="#B7E05C" transform="translate(0,0)"/>
<path d="" fill="#B6DD5C" transform="translate(0,0)"/>
<path d="" fill="#B7E05B" transform="translate(0,0)"/>
<path d="" fill="#B0D658" transform="translate(0,0)"/>
<path d="" fill="#B8E05B" transform="translate(0,0)"/>
<path d="" fill="#B9E05B" transform="translate(0,0)"/>
<path d="" fill="#B9E159" transform="translate(0,0)"/>
<path d="" fill="#B1D659" transform="translate(0,0)"/>
<path d="" fill="#B6DB5D" transform="translate(0,0)"/>
<path d="" fill="#B9DF5A" transform="translate(0,0)"/>
<path d="" fill="#B2DE59" transform="translate(0,0)"/>
<path d="" fill="#B3DB59" transform="translate(0,0)"/>
<path d="" fill="#B7DF58" transform="translate(0,0)"/>
<path d="" fill="#B8E25B" transform="translate(0,0)"/>
<path d="" fill="#B3DB5C" transform="translate(0,0)"/>
<path d="" fill="#B7E15A" transform="translate(0,0)"/>
<path d="" fill="#B1D85A" transform="translate(0,0)"/>
<path d="" fill="#B8DB59" transform="translate(0,0)"/>
<path d="" fill="#B6DA5D" transform="translate(0,0)"/>
<path d="" fill="#B7DD5C" transform="translate(0,0)"/>
<path d="" fill="#B9E258" transform="translate(0,0)"/>
<path d="" fill="#B2DF55" transform="translate(0,0)"/>
<path d="" fill="#B0D758" transform="translate(0,0)"/>
<path d="" fill="#B1D95A" transform="translate(0,0)"/>
<path d="" fill="#B7DF5C" transform="translate(0,0)"/>
<path d="" fill="#B2D85A" transform="translate(0,0)"/>
<path d="" fill="#B7DA5C" transform="translate(0,0)"/>
<path d="" fill="#B0D859" transform="translate(0,0)"/>
<path d="" fill="#B0D959" transform="translate(0,0)"/>
<path d="" fill="#B0D95B" transform="translate(0,0)"/>
<path d="" fill="#B1DF58" transform="translate(0,0)"/>
<path d="" fill="#B2DB5B" transform="translate(0,0)"/>
<path d="" fill="#B3D85B" transform="translate(0,0)"/>
<path d="" fill="#B9E05D" transform="translate(0,0)"/>
<path d="" fill="#B4DA5D" transform="translate(0,0)"/>
<path d="" fill="#B7E058" transform="translate(0,0)"/>
<path d="" fill="#B7E459" transform="translate(0,0)"/>
<path d="" fill="#B6DF5C" transform="translate(0,0)"/>
<path d="" fill="#B6DE5D" transform="translate(0,0)"/>
<path d="" fill="#B7E359" transform="translate(0,0)"/>
<path d="" fill="#B0D959" transform="translate(0,0)"/>
<path d="" fill="#B2DA5A" transform="translate(0,0)"/>
<path d="" fill="#B7E057" transform="translate(0,0)"/>
<path d="" fill="#B2DA5B" transform="translate(0,0)"/>
<path d="" fill="#B9DA62" transform="translate(0,0)"/>
<path d="" fill="#B9E45E" transform="translate(0,0)"/>
<path d="" fill="#B1DB59" transform="translate(0,0)"/>
<path d="" fill="#A8D251" transform="translate(0,0)"/>
<path d="" fill="#B2DB5B" transform="translate(0,0)"/>
<path d="" fill="#B2DA5B" transform="translate(0,0)"/>
<path d="" fill="#B4DA5B" transform="translate(0,0)"/>
<path d="" fill="#B0D955" transform="translate(0,0)"/>
<path d="" fill="#B2DA5A" transform="translate(0,0)"/>
<path d="" fill="#B3DA5C" transform="translate(0,0)"/>
<path d="" fill="#B3DA5D" transform="translate(0,0)"/>
<path d="" fill="#B3DA5B" transform="translate(0,0)"/>
<path d="" fill="#B2DA5A" transform="translate(0,0)"/>
<path d="" fill="#B2D95A" transform="translate(0,0)"/>
<path d="" fill="#B5DD53" transform="translate(0,0)"/>
<path d="" fill="#B1D95A" transform="translate(0,0)"/>
<path d="" fill="#BAE05C" transform="translate(0,0)"/>
<path d="" fill="#B2D95C" transform="translate(0,0)"/>
<path d="" fill="#B2D85B" transform="translate(0,0)"/>
<path d="" fill="#B1D959" transform="translate(0,0)"/>
<path d="" fill="#B7E35D" transform="translate(0,0)"/>
<path d="" fill="#B7E05B" transform="translate(0,0)"/>
<path d="" fill="#B7E25A" transform="translate(0,0)"/>
<path d="" fill="#B4DA5D" transform="translate(0,0)"/>
<path d="" fill="#B8E059" transform="translate(0,0)"/>
<path d="" fill="#B7E35A" transform="translate(0,0)"/>
<path d="" fill="#B8E25D" transform="translate(0,0)"/>
<path d="" fill="#B1D858" transform="translate(0,0)"/>
<path d="" fill="#B7E158" transform="translate(0,0)"/>
<path d="" fill="#B0DA5A" transform="translate(0,0)"/>
<path d="" fill="#B7E15A" transform="translate(0,0)"/>
<path d="" fill="#B1DA5A" transform="translate(0,0)"/>
<path d="" fill="#BBE25D" transform="translate(0,0)"/>
<path d="" fill="#B6E35B" transform="translate(0,0)"/>
<path d="" fill="#B0D85A" transform="translate(0,0)"/>
<path d="" fill="#B1DB5A" transform="translate(0,0)"/>
<path d="" fill="#AFD955" transform="translate(0,0)"/>
<path d="" fill="#B1D65C" transform="translate(0,0)"/>
<path d="" fill="#B1D858" transform="translate(0,0)"/>
<path d="" fill="#B2D95A" transform="translate(0,0)"/>
<path d="" fill="#B2D95C" transform="translate(0,0)"/>
<path d="" fill="#B0D85B" transform="translate(0,0)"/>
<path d="" fill="#AFD759" transform="translate(0,0)"/>
<path d="" fill="#B1D85A" transform="translate(0,0)"/>
<path d="" fill="#B0D759" transform="translate(0,0)"/>
<path d="" fill="#B0D75B" transform="translate(0,0)"/>
<path d="" fill="#B1D85C" transform="translate(0,0)"/>
<path d="" fill="#B2DA5B" transform="translate(0,0)"/>
<path d="" fill="#B2DA5B" transform="translate(0,0)"/>
<path d="" fill="#AED559" transform="translate(0,0)"/>
<path d="" fill="#B1DA58" transform="translate(0,0)"/>
<path d="" fill="#B3D863" transform="translate(0,0)"/>
<path d="" fill="#AED559" transform="translate(0,0)"/>
<path d="" fill="#AED55A" transform="translate(0,0)"/>
<path d="" fill="#B3D855" transform="translate(0,0)"/>
<path d="" fill="#ABD256" transform="translate(0,0)"/>
<path d="" fill="#ABD559" transform="translate(0,0)"/>
<path d="" fill="#AFD856" transform="translate(0,0)"/>
<path d="" fill="#A7C957" transform="translate(0,0)"/>
<path d="" fill="#B5DB5A" transform="translate(0,0)"/>
<path d="" fill="#B5DC5B" transform="translate(0,0)"/>
<path d="" fill="#B3DC5A" transform="translate(0,0)"/>
<path d="" fill="#B3DB55" transform="translate(0,0)"/>
<path d="" fill="#B7DC53" transform="translate(0,0)"/>
<path d="" fill="#B6DB56" transform="translate(0,0)"/>
<path d="" fill="#B5D857" transform="translate(0,0)"/>
<path d="" fill="#879854" transform="translate(0,0)"/>
</svg>
